# xmcd CD database file
#
# Track frame offsets:
#	150
#	39857
#	54610
#	74630
#	96236
#	120350
#	188916
#	208108
#
# Disc length: 2957 seconds
#
# Revision: 3
# Processed by: cddbd v1.4PL0 Copyright (c) Steve Scherf et al.
# Submitted via: CDex 1.50
#
DISCID=700b8b08
DTITLE=Blind Faith - Blind Faith
DYEAR=1900
DGENRE=Rock
TTITLE0=Had to Cry Today
TTITLE1=Can't Find My Way Home
TTITLE2=Well All Right
TTITLE3=Presence of the Lord
TTITLE4=Sea of Joy
TTITLE5=Do What You Like
TTITLE6=Exchange And Mart
TTITLE7=Spending All My Days
EXTD=
EXTT0=
EXTT1=
EXTT2=
EXTT3=
EXTT4=
EXTT5=
EXTT6=
EXTT7=
PLAYORDER=
